<svg version="1.1" id="Layer_1" xmlns="http://www.w3.org/2000/svg" xmlns:xlink="http://www.w3.org/1999/xlink" x="0px" y="0px"
	 width="100%" viewBox="0 0 1024 864" enable-background="new 0 0 1024 864" xml:space="preserve">
<path fill="#000000" opacity="1.000000" stroke="none" 
	d="
M667.062866,752.183350 
	C637.334351,767.046326 606.170471,776.136963 574.047729,782.646240 
	C555.434509,786.417969 536.733521,787.951538 517.958557,786.774963 
	C499.735016,785.632935 481.653992,782.868408 463.677185,779.158508 
	C439.035919,774.073242 415.385132,766.187500 393.056854,754.950134 
	C355.086395,735.840271 320.765472,711.776184 294.272614,677.753052 
	C276.735443,655.231140 260.823334,631.779541 250.050522,605.166260 
	C247.753815,599.492493 245.278580,593.879517 243.264938,588.106262 
	C241.698471,583.615112 239.026199,582.274719 234.284439,582.276367 
	C207.155396,582.285828 183.266068,573.077087 163.553604,554.590149 
	C151.428879,543.219177 143.173248,529.043274 138.430618,512.800537 
	C135.067108,501.281097 133.408905,489.539246 135.060959,477.927551 
	C137.725601,459.198761 144.429230,441.960693 157.047485,427.138031 
	C171.502151,410.158173 190.460007,401.307159 211.059769,395.133179 
	C215.257126,393.875153 219.990250,394.484039 224.453384,394.013977 
	C230.516586,393.375519 232.646042,391.011902 232.659714,384.951202 
	C232.685303,373.598938 236.144135,362.888794 238.419296,351.928223 
	C242.288284,333.289429 249.746185,316.037323 258.093323,299.170380 
	C267.771484,279.613831 279.784210,261.526947 293.508820,244.471725 
	C313.669220,219.418930 337.476379,198.708374 364.755920,181.860352 
	C366.729980,180.641144 368.890259,179.726669 370.940735,178.627258 
	C377.238251,175.250778 377.815338,172.560196 373.554382,166.928787 
	C365.792877,156.670929 355.953491,148.830368 345.033478,142.212509 
	C326.831909,131.181824 307.196930,125.251068 285.827515,125.180779 
	C282.365265,125.169395 280.676361,126.304611 279.244904,129.640060 
	C273.009644,144.168976 261.435333,153.392548 247.488892,159.896317 
	C244.143723,161.456299 240.186295,162.050125 236.763824,160.329514 
	C223.029999,153.425018 209.927917,145.166153 204.178177,130.196915 
	C197.714996,113.370232 205.108368,92.725769 224.429062,87.321480 
	C237.634674,83.627663 251.556839,82.541451 264.928772,88.555275 
	C271.884521,91.683517 276.634949,96.761772 279.230621,103.736855 
	C280.562073,107.314644 282.897095,108.618790 286.348694,108.723961 
	C288.013824,108.774704 289.683777,108.828491 291.346741,108.761520 
	C311.658173,107.943542 330.257843,113.907608 347.857483,123.383148 
	C362.158844,131.082886 375.382172,140.292862 385.855560,152.969269 
	C386.703979,153.996140 387.608063,154.984039 388.380005,156.065872 
	C394.940826,165.260254 394.813324,165.005478 404.792084,160.395798 
	C417.684082,154.440308 431.100433,150.014954 444.913300,146.470078 
	C454.786774,143.936188 464.700134,141.486176 474.657074,139.471161 
	C480.241425,138.341049 485.814026,136.542587 491.734833,136.694443 
	C497.679260,136.846924 503.405975,134.787781 509.466492,134.579865 
	C521.290100,134.174194 533.067261,134.351746 544.873291,134.724854 
	C554.489563,135.028763 563.883911,136.645401 573.288696,138.455307 
	C577.317200,139.230545 581.408264,139.686493 585.458557,140.398331 
	C620.183289,146.501053 652.646118,158.504608 683.028076,176.307541 
	C710.750916,192.552353 734.372681,213.527542 755.366760,237.761520 
	C783.161560,269.845642 803.506897,305.863068 815.197388,346.757721 
	C819.142761,360.558868 822.018250,374.511475 823.240662,388.797272 
	C823.439453,391.120697 824.246277,392.251038 826.530151,393.038757 
	C829.910400,394.204681 833.298279,394.725464 836.820007,394.709167 
	C855.569458,394.622437 871.451355,402.278870 886.255188,412.928009 
	C907.310486,428.074188 918.586304,449.551056 921.958923,474.307800 
	C927.694458,516.409302 909.781494,552.895630 868.285767,572.294739 
	C852.408264,579.717529 835.972717,583.591980 818.496216,582.307007 
	C813.291504,581.924316 812.366760,585.372253 811.278992,588.803528 
	C805.091980,608.320496 795.648315,626.306213 784.848450,643.532471 
	C756.769775,688.319153 719.614929,723.651917 673.216064,749.139099 
	C671.321289,750.179932 669.345032,751.072388 667.062866,752.183350 
M695.236450,712.698242 
	C711.102173,701.021362 726.117065,688.419739 738.953186,673.354187 
	C746.747925,664.205566 753.426697,654.269470 760.365417,644.498779 
	C762.335083,641.725037 762.759949,640.077759 759.227783,638.457031 
	C760.973999,636.454590 762.244019,634.680481 763.821533,633.243958 
	C770.895203,626.802063 776.906128,619.552246 781.165588,610.941528 
	C783.085083,607.061279 784.958313,603.155273 786.740051,599.210144 
	C798.452148,573.276428 805.229736,546.128906 805.623352,517.639099 
	C806.005371,489.984894 805.708313,462.321564 805.763184,434.662384 
	C805.794922,418.681030 806.504639,402.700592 804.896545,386.732117 
	C804.532776,383.120117 803.214966,381.469086 799.856018,381.478577 
	C790.929626,381.503784 782.340637,379.393585 773.811768,377.225281 
	C725.785217,365.015472 686.485352,340.209198 659.533752,297.659668 
	C655.502625,291.295654 651.094177,285.171326 647.426331,277.701569 
	C641.658020,285.989075 636.474060,293.097992 631.646790,300.441437 
	C620.918213,316.762421 607.166443,330.395477 592.117554,342.430664 
	C570.880554,359.414795 545.982666,369.322174 519.863831,376.418610 
	C508.146027,379.602325 496.340088,381.079102 484.307098,380.052246 
	C473.650452,379.142853 462.999298,379.353485 452.346497,379.412994 
	C432.191772,379.525543 412.036530,379.757202 391.884674,380.116119 
	C346.067200,380.932220 300.265137,379.197906 254.451202,379.320679 
	C249.586746,379.333710 248.229523,380.832397 248.247284,385.593903 
	C248.386551,422.916046 248.236313,460.239136 248.291901,497.561768 
	C248.306519,507.372040 248.244446,517.163025 249.138000,526.992615 
	C251.383820,551.697327 256.809937,575.558777 266.476074,598.404602 
	C280.207092,630.857422 299.959839,659.445251 324.300415,684.661072 
	C343.504028,704.555176 366.269775,720.059204 390.623016,733.143494 
	C426.495178,752.416626 465.019531,763.239624 505.377747,766.373169 
	C538.011047,768.906921 570.376099,766.306702 602.214722,756.943359 
	C635.466858,747.164307 666.702881,733.765747 695.236450,712.698242 
M535.789917,151.998032 
	C517.097534,150.665695 498.544556,152.246780 480.124939,155.195999 
	C419.317413,164.932083 367.227264,191.774918 323.632965,235.268326 
	C293.202606,265.628235 272.121643,301.667816 258.173950,342.086884 
	C256.401520,347.223175 255.116699,352.527679 253.608902,357.744263 
	C256.441345,359.254303 258.978668,358.651642 261.399261,358.652832 
	C338.709869,358.690674 416.020569,358.646851 493.331146,358.710968 
	C509.038818,358.723999 524.187256,355.684021 538.583435,349.799835 
	C560.893005,340.681213 581.458618,328.833313 599.157104,311.895599 
	C617.260925,294.570038 630.099731,274.430573 636.387817,250.347382 
	C641.909973,229.197556 642.972168,207.354355 644.617981,185.652618 
	C645.309265,176.537323 644.981995,176.738068 636.268494,173.127289 
	C604.383240,159.914490 571.109680,153.409576 535.789917,151.998032 
M703.878845,212.653595 
	C691.518921,202.615753 678.348389,193.887100 663.594543,186.929382 
	C662.687866,198.641785 662.169983,209.614929 660.902588,220.500778 
	C659.627686,231.451187 658.854248,242.070206 662.298157,252.969864 
	C671.018494,280.568848 684.138184,305.190704 707.444763,323.256592 
	C724.030457,336.112946 742.663086,345.364655 762.209351,352.760468 
	C771.870239,356.415894 782.029602,358.396271 792.149292,360.370514 
	C799.283142,361.762268 800.460815,360.565613 798.430237,353.795898 
	C795.368835,343.589172 791.715332,333.592957 787.651794,323.727325 
	C769.487793,279.628540 741.254578,243.144073 703.878845,212.653595 
M862.520020,554.034058 
	C863.954956,553.189941 865.393860,552.352478 866.824219,551.500732 
	C893.079834,535.866394 908.064392,511.834808 903.408569,478.715698 
	C897.490295,436.615692 869.091614,412.837372 827.307434,409.447662 
	C824.552063,409.224152 823.204163,410.331299 823.377625,413.150238 
	C823.602600,416.805450 823.986267,420.460846 824.002014,424.117462 
	C824.129395,453.605286 824.319702,483.093964 824.203430,512.581238 
	C824.152283,525.554871 823.144104,538.476929 820.557068,551.266602 
	C819.758850,555.212708 817.846375,559.029663 818.169312,563.197754 
	C830.231445,564.796814 848.398804,561.104492 862.520020,554.034058 
M234.110458,559.873291 
	C232.980408,551.475891 231.396988,543.110291 230.803680,534.675171 
	C228.873581,507.234680 229.749573,479.740631 229.907730,452.267883 
	C229.979568,439.788757 229.385101,427.291443 230.553360,414.821716 
	C230.838684,411.776215 230.303360,408.980957 226.045471,409.486237 
	C210.313858,411.353058 195.670242,415.676697 182.412811,425.058014 
	C150.992126,447.292175 141.470490,490.679901 162.895325,526.038635 
	C178.292267,551.449158 203.447678,560.089111 231.153625,563.612366 
	C233.221817,563.875366 234.934067,563.402649 234.110458,559.873291 
M260.987000,105.502632 
	C254.882309,100.668442 251.641220,100.404251 247.451736,104.399361 
	C241.903214,109.690445 241.212524,109.705490 235.072784,104.668587 
	C231.062988,101.379089 227.455948,101.350731 223.400848,104.576874 
	C218.167908,108.740105 216.907715,114.342880 219.312897,120.647682 
	C223.041351,130.421280 231.242020,136.024261 239.024918,141.907242 
	C241.798553,144.003799 245.400238,143.312241 248.354263,141.145706 
	C251.700729,138.691360 255.616028,136.714478 258.250793,133.643539 
	C266.294983,124.267593 270.333527,116.035576 260.987000,105.502632 
z"/>
<path fill="#000000" opacity="1.000000" stroke="none" 
	d="
M403.543091,429.479370 
	C403.529175,433.760681 402.568512,437.989868 403.901093,441.294220 
	C405.342377,444.868286 410.398590,443.634186 413.658447,445.160309 
	C435.488800,455.380249 449.837463,471.438995 451.005280,496.274261 
	C451.552521,507.912354 448.410583,519.329102 440.969635,529.010925 
	C438.439972,532.302429 436.054382,535.686707 433.398163,538.901062 
	C421.232880,553.622803 405.528076,559.047607 386.859192,557.502686 
	C360.347015,555.308838 345.257019,539.047913 335.441254,516.177002 
	C334.789124,514.657532 334.193604,513.022705 334.036377,511.396606 
	C332.939758,500.053162 332.895569,503.354980 322.395355,501.492401 
	C317.022369,500.539307 311.454468,500.680573 305.973816,500.340363 
	C299.200775,499.919891 295.853912,495.409027 296.695099,487.814972 
	C297.263824,482.680481 302.902100,478.993256 308.655090,480.216522 
	C314.976349,481.560638 321.143036,483.415405 327.701599,483.836334 
	C333.195923,484.188934 333.826080,480.007050 335.417114,476.877289 
	C336.963928,473.834442 334.036774,472.578705 332.040161,471.130310 
	C325.852997,466.642059 318.995636,462.935974 314.038879,456.966736 
	C308.602905,450.420410 311.261292,442.457916 319.340698,440.153748 
	C323.206604,439.051239 326.177643,440.578979 328.817078,443.142181 
	C332.521149,446.739349 336.120270,450.445587 339.860260,454.004333 
	C342.134125,456.167999 344.487762,458.285553 347.369415,459.478790 
	C347.824738,459.299194 348.258698,459.268829 348.417755,459.043945 
	C350.546692,456.034424 355.735931,455.418243 356.141418,451.828064 
	C356.520325,448.473145 352.140259,446.467377 350.389343,443.449341 
	C348.721954,440.575256 346.556091,437.993713 344.830414,435.149445 
	C341.471832,429.613739 342.448944,424.705597 347.317749,421.759003 
	C352.354523,418.710785 357.794403,420.037476 361.013947,425.266541 
	C363.980896,430.085297 367.033173,434.880768 369.559631,439.930786 
	C371.139893,443.089478 372.770477,443.623993 376.172882,442.870819 
	C384.923248,440.933746 384.967316,441.170959 384.834442,432.307434 
	C384.777008,428.475922 384.609894,424.637695 384.762512,420.813263 
	C385.016266,414.454193 389.420105,409.930847 395.000153,410.028198 
	C400.208221,410.119080 404.214661,414.791382 404.233521,421.064423 
	C404.241486,423.715607 403.828156,426.368042 403.543091,429.479370 
M401.277832,480.161011 
	C391.524719,474.183990 379.100159,476.615448 374.420715,485.416901 
	C369.708496,494.280029 372.752106,504.083801 381.996613,509.819458 
	C389.260773,514.326416 399.593079,511.757385 405.387390,504.003601 
	C410.925018,496.593292 409.543091,487.363983 401.277832,480.161011 
z"/>
<path fill="#000000" opacity="1.000000" stroke="none" 
	d="
M607.627686,496.109009 
	C608.269836,471.988342 628.037476,448.114227 651.686646,442.958832 
	C655.226318,442.187225 655.947266,440.840942 655.846924,437.704132 
	C655.644592,431.378052 655.600830,425.041229 655.709656,418.712616 
	C655.805054,413.158600 659.373779,409.794952 664.883423,409.694397 
	C670.199036,409.597443 674.103882,413.142883 674.323120,418.500977 
	C674.554871,424.163208 674.377747,429.815552 673.392395,435.426178 
	C672.682678,439.467407 673.918213,441.777039 678.489197,442.610535 
	C688.162964,444.374390 688.032104,444.572418 693.095642,435.703796 
	C695.722961,431.102112 697.701294,426.046753 701.800781,422.389435 
	C705.630737,418.972595 710.081604,418.794128 713.966309,421.943146 
	C717.655090,424.933350 718.571838,429.314392 715.744751,433.511444 
	C712.229187,438.730530 709.455566,444.459991 704.768677,448.912231 
	C701.454041,452.060822 702.059692,453.777283 705.777893,456.369263 
	C710.194214,459.448059 713.865845,459.861786 717.689026,455.310242 
	C721.214050,451.113678 725.168518,447.254272 729.139465,443.461517 
	C734.490417,438.350586 738.281860,437.848480 742.261597,441.337250 
	C746.333557,444.906830 746.615356,450.465515 743.237183,455.739532 
	C738.643494,462.911163 731.062805,466.496155 724.611633,471.412018 
	C722.095825,473.329102 719.702393,474.465302 721.577393,478.419220 
	C723.391296,482.244232 725.592834,484.307709 730.027466,483.509949 
	C736.557800,482.335175 743.096863,481.119446 749.683594,480.377319 
	C754.575989,479.826111 759.102173,481.174011 761.464844,486.036285 
	C763.658386,490.550598 761.902466,494.437500 758.784363,497.878876 
	C757.514099,499.280914 756.007141,500.376648 754.032898,500.279480 
	C745.495483,499.859344 737.182190,502.265930 728.694763,502.250732 
	C725.491028,502.244995 723.559814,503.203918 723.354309,506.612976 
	C722.577087,519.504272 715.003967,529.887390 707.710754,538.962341 
	C698.466675,550.464844 685.201843,557.527039 669.150818,557.423584 
	C640.427124,557.238525 618.648376,542.685486 610.047546,517.286133 
	C607.765381,510.546692 607.364990,503.613373 607.627686,496.109009 
M652.989624,480.418304 
	C646.862915,484.843903 644.109680,490.440582 646.437317,498.084412 
	C649.093994,506.809052 656.582703,512.241760 665.551636,511.667450 
	C673.624817,511.150482 680.021790,504.249146 681.464355,494.500122 
	C682.471252,487.695648 678.008484,480.747711 670.347046,478.174164 
	C664.643433,476.258331 658.889526,476.623596 652.989624,480.418304 
z"/>
<path fill="#000000" opacity="1.000000" stroke="none" 
	d="
M399.101990,619.615723 
	C391.724762,644.056824 366.098145,654.833435 344.311066,642.319031 
	C328.845917,633.435791 321.290894,611.174561 333.939667,593.134644 
	C342.832947,580.450928 356.322662,576.910461 371.117676,578.991760 
	C384.544098,580.880554 394.011902,588.182129 398.384521,601.453186 
	C400.322021,607.333618 399.743866,613.248352 399.101990,619.615723 
z"/>
<path fill="#000000" opacity="1.000000" stroke="none" 
	d="
M724.574219,630.413452 
	C708.700806,653.524231 673.811707,650.252441 662.012939,629.040283 
	C652.015320,611.066284 660.580811,587.287659 680.062866,580.555786 
	C704.730713,572.031982 729.889160,589.340332 729.286499,614.420837 
	C729.151428,620.040894 727.396606,625.194702 724.574219,630.413452 
z"/>
<path fill="#000000" opacity="1.000000" stroke="none" 
	d="
M549.417725,615.419250 
	C538.388062,628.145996 510.922729,625.388977 502.307373,611.401733 
	C500.985840,609.256165 499.855621,607.056152 499.192322,604.628357 
	C497.864197,599.767395 499.734802,594.993530 503.693420,593.095886 
	C507.833527,591.111389 512.119324,592.583069 515.198914,597.046753 
	C521.208740,605.757629 528.995789,608.136108 536.427429,603.618469 
	C539.421509,601.798340 541.129578,599.017700 542.739868,596.062500 
	C545.070435,591.785522 548.518250,590.444275 552.652649,592.037109 
	C556.669189,593.584534 559.127319,598.502747 557.854248,602.735291 
	C556.369385,607.672302 552.776855,611.266479 549.417725,615.419250 
z"/>
</svg>